<mxfile host="app.diagrams.net" agent="Mozilla/5.0 (Windows NT 10.0; Win64; x64) AppleWebKit/537.36 (KHTML, like Gecko) Chrome/136.0.0.0 Safari/537.36" version="27.0.3">
  <diagram name="Page-1" id="NvmOd1hnCoSiwyfroD-n">
    <mxGraphModel dx="1501" dy="818" grid="1" gridSize="10" guides="1" tooltips="1" connect="1" arrows="1" fold="1" page="1" pageScale="1" pageWidth="1654" pageHeight="1169" background="light-dark(#FFFFFF,#222222)" math="0" shadow="0">
      <root>
        <mxCell id="0" />
        <mxCell id="1" parent="0" />
        <mxCell id="qNLJSK2YPdrOxjm5gzX9-74" value="" style="rounded=1;whiteSpace=wrap;html=1;strokeColor=none;arcSize=4;fontFamily=Bosch Sans;" vertex="1" parent="1">
          <mxGeometry x="1027" y="594" width="240" height="200" as="geometry" />
        </mxCell>
        <mxCell id="qNLJSK2YPdrOxjm5gzX9-48" value="" style="rounded=1;whiteSpace=wrap;html=1;strokeColor=none;arcSize=4;fontFamily=Bosch Sans;" vertex="1" parent="1">
          <mxGeometry x="947" y="354" width="320" height="200" as="geometry" />
        </mxCell>
        <mxCell id="qNLJSK2YPdrOxjm5gzX9-10" value="" style="rounded=1;whiteSpace=wrap;html=1;strokeColor=none;arcSize=4;fontFamily=Bosch Sans;" vertex="1" parent="1">
          <mxGeometry x="387" y="354" width="200" height="560" as="geometry" />
        </mxCell>
        <mxCell id="qNLJSK2YPdrOxjm5gzX9-1" value="&lt;font style=&quot;font-size: 20px;&quot;&gt;Dolphin Media Converter&lt;/font&gt;" style="text;html=1;align=center;verticalAlign=middle;whiteSpace=wrap;rounded=0;fontFamily=Bosch Sans;" vertex="1" parent="1">
          <mxGeometry x="682" y="210" width="290" height="30" as="geometry" />
        </mxCell>
        <mxCell id="qNLJSK2YPdrOxjm5gzX9-50" style="edgeStyle=orthogonalEdgeStyle;rounded=0;orthogonalLoop=1;jettySize=auto;html=1;entryX=0;entryY=0.5;entryDx=0;entryDy=0;fontFamily=Bosch Sans;fontSize=12;fontColor=default;strokeWidth=4;strokeColor=light-dark(#000000,#E20014);endArrow=none;startFill=0;" edge="1" parent="1" source="qNLJSK2YPdrOxjm5gzX9-5" target="qNLJSK2YPdrOxjm5gzX9-47">
          <mxGeometry relative="1" as="geometry">
            <Array as="points">
              <mxPoint x="487" y="454" />
              <mxPoint x="827" y="454" />
              <mxPoint x="827" y="434" />
            </Array>
          </mxGeometry>
        </mxCell>
        <mxCell id="qNLJSK2YPdrOxjm5gzX9-5" value="USB-C" style="rounded=1;whiteSpace=wrap;html=1;strokeColor=none;fillColor=light-dark(#424242,#222222);fontFamily=Bosch Sans;" vertex="1" parent="1">
          <mxGeometry x="427" y="514" width="120" height="40" as="geometry" />
        </mxCell>
        <mxCell id="qNLJSK2YPdrOxjm5gzX9-6" value="RJ45" style="rounded=1;whiteSpace=wrap;html=1;strokeColor=none;fillColor=light-dark(#424242,#222222);fontFamily=Bosch Sans;" vertex="1" parent="1">
          <mxGeometry x="427" y="834" width="120" height="40" as="geometry" />
        </mxCell>
        <mxCell id="qNLJSK2YPdrOxjm5gzX9-7" value="DIP Switch" style="rounded=1;whiteSpace=wrap;html=1;fillColor=light-dark(#424242,#222222);strokeColor=none;fontFamily=Bosch Sans;" vertex="1" parent="1">
          <mxGeometry x="427" y="594" width="120" height="40" as="geometry" />
        </mxCell>
        <mxCell id="qNLJSK2YPdrOxjm5gzX9-49" style="edgeStyle=orthogonalEdgeStyle;rounded=0;orthogonalLoop=1;jettySize=auto;html=1;entryX=0;entryY=0.5;entryDx=0;entryDy=0;fontFamily=Bosch Sans;fontSize=12;fontColor=default;strokeWidth=4;strokeColor=light-dark(#000000,#E20014);endArrow=none;startFill=0;" edge="1" parent="1" source="qNLJSK2YPdrOxjm5gzX9-8" target="qNLJSK2YPdrOxjm5gzX9-46">
          <mxGeometry relative="1" as="geometry">
            <Array as="points">
              <mxPoint x="787" y="414" />
              <mxPoint x="787" y="394" />
            </Array>
          </mxGeometry>
        </mxCell>
        <mxCell id="qNLJSK2YPdrOxjm5gzX9-66" value="5-20V" style="edgeLabel;html=1;align=center;verticalAlign=middle;resizable=0;points=[];rounded=1;arcSize=4;fontFamily=Bosch Sans;fontSize=12;fontColor=default;fillColor=default;labelBackgroundColor=none;direction=south;" vertex="1" connectable="0" parent="qNLJSK2YPdrOxjm5gzX9-49">
          <mxGeometry x="-0.3791" relative="1" as="geometry">
            <mxPoint y="-10" as="offset" />
          </mxGeometry>
        </mxCell>
        <mxCell id="qNLJSK2YPdrOxjm5gzX9-8" value="WAGO Connector" style="rounded=1;whiteSpace=wrap;html=1;fillColor=light-dark(#424242,#222222);strokeColor=none;fontFamily=Bosch Sans;" vertex="1" parent="1">
          <mxGeometry x="427" y="394" width="120" height="40" as="geometry" />
        </mxCell>
        <mxCell id="qNLJSK2YPdrOxjm5gzX9-9" value="HMTD" style="rounded=1;whiteSpace=wrap;html=1;fillColor=light-dark(#424242,#222222);strokeColor=none;fontFamily=Bosch Sans;" vertex="1" parent="1">
          <mxGeometry x="427" y="674" width="120" height="40" as="geometry" />
        </mxCell>
        <mxCell id="qNLJSK2YPdrOxjm5gzX9-12" value="" style="rounded=1;whiteSpace=wrap;html=1;strokeColor=none;arcSize=4;fontFamily=Bosch Sans;" vertex="1" parent="1">
          <mxGeometry x="667" y="474" width="160" height="120" as="geometry" />
        </mxCell>
        <mxCell id="qNLJSK2YPdrOxjm5gzX9-19" value="" style="rounded=1;whiteSpace=wrap;html=1;strokeColor=none;arcSize=4;fontFamily=Bosch Sans;" vertex="1" parent="1">
          <mxGeometry x="667" y="634" width="160" height="120" as="geometry" />
        </mxCell>
        <mxCell id="qNLJSK2YPdrOxjm5gzX9-21" value="MARVELL&lt;div&gt;88Q2112&lt;/div&gt;" style="rounded=1;whiteSpace=wrap;html=1;strokeColor=light-dark(#00ADB4, #e20014);fillColor=default;arcSize=13;fontFamily=Bosch Sans;" vertex="1" parent="1">
          <mxGeometry x="687" y="654" width="120" height="80" as="geometry" />
        </mxCell>
        <mxCell id="qNLJSK2YPdrOxjm5gzX9-23" value="" style="rounded=1;whiteSpace=wrap;html=1;strokeColor=none;arcSize=4;fontFamily=Bosch Sans;" vertex="1" parent="1">
          <mxGeometry x="667" y="794" width="160" height="120" as="geometry" />
        </mxCell>
        <mxCell id="qNLJSK2YPdrOxjm5gzX9-24" value="REALTEK&lt;div&gt;RTL8211F-CG&lt;/div&gt;" style="rounded=1;whiteSpace=wrap;html=1;strokeColor=light-dark(#00ADB4, #008ed0);fillColor=default;arcSize=11;fontFamily=Bosch Sans;" vertex="1" parent="1">
          <mxGeometry x="687" y="814" width="120" height="80" as="geometry" />
        </mxCell>
        <mxCell id="qNLJSK2YPdrOxjm5gzX9-25" style="edgeStyle=orthogonalEdgeStyle;rounded=0;orthogonalLoop=1;jettySize=auto;html=1;entryX=0.5;entryY=0;entryDx=0;entryDy=0;fontFamily=Bosch Sans;fontSize=12;fontColor=default;shape=link;width=3.1999999999999993;" edge="1" parent="1" source="qNLJSK2YPdrOxjm5gzX9-21" target="qNLJSK2YPdrOxjm5gzX9-24">
          <mxGeometry relative="1" as="geometry">
            <Array as="points">
              <mxPoint x="747" y="784" />
              <mxPoint x="747" y="784" />
            </Array>
          </mxGeometry>
        </mxCell>
        <mxCell id="qNLJSK2YPdrOxjm5gzX9-26" value="RGMII" style="edgeLabel;html=1;align=center;verticalAlign=middle;resizable=0;points=[];rounded=1;arcSize=4;fontFamily=Bosch Sans;fontSize=12;fontColor=default;fillColor=default;labelBackgroundColor=none;horizontal=0;" vertex="1" connectable="0" parent="qNLJSK2YPdrOxjm5gzX9-25">
          <mxGeometry x="-0.1879" y="-1" relative="1" as="geometry">
            <mxPoint x="11" y="8" as="offset" />
          </mxGeometry>
        </mxCell>
        <mxCell id="qNLJSK2YPdrOxjm5gzX9-27" style="edgeStyle=orthogonalEdgeStyle;rounded=0;orthogonalLoop=1;jettySize=auto;html=1;entryX=1;entryY=0.5;entryDx=0;entryDy=0;fontFamily=Bosch Sans;fontSize=12;fontColor=default;endArrow=none;startFill=0;" edge="1" parent="1" source="qNLJSK2YPdrOxjm5gzX9-13" target="qNLJSK2YPdrOxjm5gzX9-21">
          <mxGeometry relative="1" as="geometry">
            <Array as="points">
              <mxPoint x="857" y="534" />
              <mxPoint x="857" y="694" />
            </Array>
          </mxGeometry>
        </mxCell>
        <mxCell id="qNLJSK2YPdrOxjm5gzX9-28" style="edgeStyle=orthogonalEdgeStyle;rounded=0;orthogonalLoop=1;jettySize=auto;html=1;entryX=1;entryY=0.5;entryDx=0;entryDy=0;fontFamily=Bosch Sans;fontSize=12;fontColor=default;endArrow=none;startFill=0;" edge="1" parent="1" source="qNLJSK2YPdrOxjm5gzX9-13" target="qNLJSK2YPdrOxjm5gzX9-24">
          <mxGeometry relative="1" as="geometry">
            <Array as="points">
              <mxPoint x="857" y="534" />
              <mxPoint x="857" y="854" />
            </Array>
          </mxGeometry>
        </mxCell>
        <mxCell id="qNLJSK2YPdrOxjm5gzX9-29" value="MDC/MDIO" style="edgeLabel;html=1;align=center;verticalAlign=middle;resizable=0;points=[];rounded=1;arcSize=4;fontFamily=Bosch Sans;fontSize=12;fontColor=default;fillColor=default;labelBackgroundColor=none;horizontal=0;" vertex="1" connectable="0" parent="qNLJSK2YPdrOxjm5gzX9-28">
          <mxGeometry x="-0.3407" y="1" relative="1" as="geometry">
            <mxPoint x="9" y="5" as="offset" />
          </mxGeometry>
        </mxCell>
        <mxCell id="qNLJSK2YPdrOxjm5gzX9-30" value="MDC/MDIO" style="edgeLabel;html=1;align=center;verticalAlign=middle;resizable=0;points=[];rounded=1;arcSize=4;fontFamily=Bosch Sans;fontSize=12;fontColor=default;fillColor=default;labelBackgroundColor=none;horizontal=0;" vertex="1" connectable="0" parent="1">
          <mxGeometry x="867.0044827586207" y="774.0031034482759" as="geometry" />
        </mxCell>
        <mxCell id="qNLJSK2YPdrOxjm5gzX9-39" style="edgeStyle=orthogonalEdgeStyle;rounded=0;orthogonalLoop=1;jettySize=auto;html=1;fontFamily=Bosch Sans;fontSize=12;fontColor=default;shape=link;" edge="1" parent="1" source="qNLJSK2YPdrOxjm5gzX9-6" target="qNLJSK2YPdrOxjm5gzX9-24">
          <mxGeometry relative="1" as="geometry" />
        </mxCell>
        <mxCell id="qNLJSK2YPdrOxjm5gzX9-41" value="MDI" style="edgeLabel;html=1;align=center;verticalAlign=middle;resizable=0;points=[];rounded=1;arcSize=4;fontFamily=Bosch Sans;fontSize=12;fontColor=default;fillColor=default;labelBackgroundColor=none;" vertex="1" connectable="0" parent="qNLJSK2YPdrOxjm5gzX9-39">
          <mxGeometry x="0.0667" y="3" relative="1" as="geometry">
            <mxPoint x="1" y="-7" as="offset" />
          </mxGeometry>
        </mxCell>
        <mxCell id="qNLJSK2YPdrOxjm5gzX9-38" style="edgeStyle=orthogonalEdgeStyle;rounded=0;orthogonalLoop=1;jettySize=auto;html=1;entryX=0;entryY=0.5;entryDx=0;entryDy=0;fontFamily=Bosch Sans;fontSize=12;fontColor=default;shape=link;" edge="1" parent="1" source="qNLJSK2YPdrOxjm5gzX9-9" target="qNLJSK2YPdrOxjm5gzX9-21">
          <mxGeometry relative="1" as="geometry" />
        </mxCell>
        <mxCell id="qNLJSK2YPdrOxjm5gzX9-40" value="MDI" style="edgeLabel;html=1;align=center;verticalAlign=middle;resizable=0;points=[];rounded=1;arcSize=4;fontFamily=Bosch Sans;fontSize=12;fontColor=default;fillColor=default;labelBackgroundColor=none;" vertex="1" connectable="0" parent="qNLJSK2YPdrOxjm5gzX9-38">
          <mxGeometry x="0.0987" y="-2" relative="1" as="geometry">
            <mxPoint x="-2" y="-12" as="offset" />
          </mxGeometry>
        </mxCell>
        <mxCell id="qNLJSK2YPdrOxjm5gzX9-43" style="edgeStyle=orthogonalEdgeStyle;rounded=0;orthogonalLoop=1;jettySize=auto;html=1;entryX=0;entryY=0.5;entryDx=0;entryDy=0;fontFamily=Bosch Sans;fontSize=12;fontColor=default;shape=link;" edge="1" parent="1">
          <mxGeometry relative="1" as="geometry">
            <mxPoint x="547" y="533.81" as="sourcePoint" />
            <mxPoint x="687" y="533.81" as="targetPoint" />
          </mxGeometry>
        </mxCell>
        <mxCell id="qNLJSK2YPdrOxjm5gzX9-44" value="USB 2.0" style="edgeLabel;html=1;align=center;verticalAlign=middle;resizable=0;points=[];rounded=1;arcSize=4;fontFamily=Bosch Sans;fontSize=12;fontColor=default;fillColor=default;labelBackgroundColor=none;" vertex="1" connectable="0" parent="qNLJSK2YPdrOxjm5gzX9-43">
          <mxGeometry x="0.0987" y="-2" relative="1" as="geometry">
            <mxPoint x="-2" y="-12" as="offset" />
          </mxGeometry>
        </mxCell>
        <mxCell id="qNLJSK2YPdrOxjm5gzX9-56" style="edgeStyle=orthogonalEdgeStyle;rounded=0;orthogonalLoop=1;jettySize=auto;html=1;entryX=1;entryY=0.5;entryDx=0;entryDy=0;fontFamily=Bosch Sans;fontSize=12;fontColor=default;strokeColor=light-dark(#000000,#E20014);strokeWidth=4;endArrow=none;startFill=0;" edge="1" parent="1" source="qNLJSK2YPdrOxjm5gzX9-46" target="qNLJSK2YPdrOxjm5gzX9-54">
          <mxGeometry relative="1" as="geometry">
            <Array as="points">
              <mxPoint x="1247" y="394" />
              <mxPoint x="1247" y="504" />
            </Array>
          </mxGeometry>
        </mxCell>
        <mxCell id="qNLJSK2YPdrOxjm5gzX9-46" value="&lt;span style=&quot;text-align: left;&quot;&gt;LM74500&lt;/span&gt;&lt;div&gt;&lt;span style=&quot;text-align: left;&quot;&gt;Smart Diode&lt;/span&gt;&lt;/div&gt;" style="rounded=1;whiteSpace=wrap;html=1;fillColor=light-dark(#424242,#222222);strokeColor=light-dark(#000000, #121212);fontFamily=Bosch Sans;" vertex="1" parent="1">
          <mxGeometry x="977" y="374" width="120" height="40" as="geometry" />
        </mxCell>
        <mxCell id="qNLJSK2YPdrOxjm5gzX9-52" style="edgeStyle=orthogonalEdgeStyle;rounded=0;orthogonalLoop=1;jettySize=auto;html=1;exitX=1;exitY=0.5;exitDx=0;exitDy=0;entryX=0;entryY=0.5;entryDx=0;entryDy=0;fontFamily=Bosch Sans;fontSize=12;fontColor=default;endArrow=none;startFill=0;strokeColor=light-dark(#000000,#E20014);strokeWidth=4;" edge="1" parent="1" source="qNLJSK2YPdrOxjm5gzX9-47" target="qNLJSK2YPdrOxjm5gzX9-51">
          <mxGeometry relative="1" as="geometry" />
        </mxCell>
        <mxCell id="qNLJSK2YPdrOxjm5gzX9-47" value="&lt;span style=&quot;text-align: left;&quot;&gt;LM74500&lt;/span&gt;&lt;div&gt;&lt;span style=&quot;text-align: left;&quot;&gt;Smart Diode&lt;/span&gt;&lt;/div&gt;" style="rounded=1;whiteSpace=wrap;html=1;fillColor=light-dark(#424242,#222222);strokeColor=light-dark(#424242, #121212);fontFamily=Bosch Sans;" vertex="1" parent="1">
          <mxGeometry x="977" y="414" width="120" height="40" as="geometry" />
        </mxCell>
        <mxCell id="qNLJSK2YPdrOxjm5gzX9-57" style="edgeStyle=orthogonalEdgeStyle;rounded=0;orthogonalLoop=1;jettySize=auto;html=1;entryX=1;entryY=0.5;entryDx=0;entryDy=0;fontFamily=Bosch Sans;fontSize=12;fontColor=default;strokeColor=light-dark(#000000,#E20014);endArrow=none;startFill=0;strokeWidth=4;" edge="1" parent="1" source="qNLJSK2YPdrOxjm5gzX9-51" target="qNLJSK2YPdrOxjm5gzX9-54">
          <mxGeometry relative="1" as="geometry">
            <Array as="points">
              <mxPoint x="1247" y="434" />
              <mxPoint x="1247" y="504" />
            </Array>
          </mxGeometry>
        </mxCell>
        <mxCell id="qNLJSK2YPdrOxjm5gzX9-51" value="&lt;div style=&quot;&quot;&gt;&lt;span style=&quot;background-color: transparent;&quot;&gt;TPS25730D&lt;/span&gt;&lt;/div&gt;&lt;div style=&quot;&quot;&gt;&lt;span style=&quot;background-color: transparent; color: light-dark(rgb(0, 0, 0), rgb(255, 255, 255));&quot;&gt;USB-PD Controller&lt;/span&gt;&lt;/div&gt;" style="rounded=1;whiteSpace=wrap;html=1;fillColor=light-dark(#424242,#222222);strokeColor=light-dark(#424242, #121212);align=center;fontFamily=Bosch Sans;" vertex="1" parent="1">
          <mxGeometry x="1117" y="414" width="120" height="40" as="geometry" />
        </mxCell>
        <mxCell id="qNLJSK2YPdrOxjm5gzX9-60" style="edgeStyle=orthogonalEdgeStyle;rounded=0;orthogonalLoop=1;jettySize=auto;html=1;entryX=1;entryY=0.25;entryDx=0;entryDy=0;fontFamily=Bosch Sans;fontSize=12;fontColor=default;strokeWidth=3;strokeColor=light-dark(#000000, #78be20);endArrow=none;startFill=0;" edge="1" parent="1" source="qNLJSK2YPdrOxjm5gzX9-54" target="qNLJSK2YPdrOxjm5gzX9-21">
          <mxGeometry relative="1" as="geometry">
            <Array as="points">
              <mxPoint x="897" y="514" />
              <mxPoint x="897" y="674" />
            </Array>
          </mxGeometry>
        </mxCell>
        <mxCell id="qNLJSK2YPdrOxjm5gzX9-61" style="edgeStyle=orthogonalEdgeStyle;rounded=0;orthogonalLoop=1;jettySize=auto;html=1;entryX=1;entryY=0.25;entryDx=0;entryDy=0;fontFamily=Bosch Sans;fontSize=12;fontColor=default;strokeWidth=3;strokeColor=light-dark(#000000, #78be20);endArrow=none;startFill=0;" edge="1" parent="1" source="qNLJSK2YPdrOxjm5gzX9-54" target="qNLJSK2YPdrOxjm5gzX9-24">
          <mxGeometry relative="1" as="geometry">
            <Array as="points">
              <mxPoint x="897" y="514" />
              <mxPoint x="897" y="834" />
            </Array>
          </mxGeometry>
        </mxCell>
        <mxCell id="qNLJSK2YPdrOxjm5gzX9-62" style="edgeStyle=orthogonalEdgeStyle;rounded=0;orthogonalLoop=1;jettySize=auto;html=1;exitX=0;exitY=0.5;exitDx=0;exitDy=0;entryX=1;entryY=0.25;entryDx=0;entryDy=0;fontFamily=Bosch Sans;fontSize=12;fontColor=default;strokeColor=light-dark(#000000,#78BE20);strokeWidth=3;endArrow=none;startFill=0;" edge="1" parent="1" source="qNLJSK2YPdrOxjm5gzX9-54" target="qNLJSK2YPdrOxjm5gzX9-13">
          <mxGeometry relative="1" as="geometry">
            <Array as="points">
              <mxPoint x="987" y="504" />
              <mxPoint x="987" y="514" />
              <mxPoint x="797" y="514" />
              <mxPoint x="797" y="517" />
            </Array>
          </mxGeometry>
        </mxCell>
        <mxCell id="qNLJSK2YPdrOxjm5gzX9-63" value="3.3V" style="edgeLabel;html=1;align=center;verticalAlign=middle;resizable=0;points=[];rounded=1;arcSize=4;fontFamily=Bosch Sans;fontSize=12;fontColor=default;fillColor=default;labelBackgroundColor=none;" vertex="1" connectable="0" parent="qNLJSK2YPdrOxjm5gzX9-62">
          <mxGeometry x="0.1079" relative="1" as="geometry">
            <mxPoint x="13" y="-10" as="offset" />
          </mxGeometry>
        </mxCell>
        <mxCell id="qNLJSK2YPdrOxjm5gzX9-54" value="&lt;div style=&quot;&quot;&gt;&lt;span style=&quot;text-align: left;&quot;&gt;TPS62933&lt;/span&gt;&lt;/div&gt;&lt;div style=&quot;&quot;&gt;3.3V DC/DC Converter&lt;/div&gt;" style="rounded=1;whiteSpace=wrap;html=1;fillColor=light-dark(#424242,#222222);strokeColor=light-dark(#424242, #121212);align=center;fontFamily=Bosch Sans;" vertex="1" parent="1">
          <mxGeometry x="977" y="484" width="260" height="40" as="geometry" />
        </mxCell>
        <mxCell id="qNLJSK2YPdrOxjm5gzX9-13" value="RP2350" style="rounded=1;whiteSpace=wrap;html=1;strokeColor=light-dark(#00ADB4, #b90276);fillColor=default;arcSize=13;fontFamily=Bosch Sans;" vertex="1" parent="1">
          <mxGeometry x="687" y="499" width="120" height="70" as="geometry" />
        </mxCell>
        <mxCell id="qNLJSK2YPdrOxjm5gzX9-67" value="5-20V" style="edgeLabel;html=1;align=center;verticalAlign=middle;resizable=0;points=[];rounded=1;arcSize=4;fontFamily=Bosch Sans;fontSize=12;fontColor=default;fillColor=default;labelBackgroundColor=none;" vertex="1" connectable="0" parent="1">
          <mxGeometry x="686.9985714285714" y="444" as="geometry" />
        </mxCell>
        <mxCell id="qNLJSK2YPdrOxjm5gzX9-68" style="edgeStyle=orthogonalEdgeStyle;rounded=0;orthogonalLoop=1;jettySize=auto;html=1;entryX=0;entryY=0.75;entryDx=0;entryDy=0;fontFamily=Bosch Sans;fontSize=12;fontColor=default;endArrow=none;startFill=0;" edge="1" parent="1" source="qNLJSK2YPdrOxjm5gzX9-7" target="qNLJSK2YPdrOxjm5gzX9-13">
          <mxGeometry relative="1" as="geometry">
            <Array as="points">
              <mxPoint x="657" y="614" />
              <mxPoint x="657" y="551" />
            </Array>
          </mxGeometry>
        </mxCell>
        <mxCell id="qNLJSK2YPdrOxjm5gzX9-69" style="edgeStyle=orthogonalEdgeStyle;rounded=0;orthogonalLoop=1;jettySize=auto;html=1;entryX=0;entryY=0.25;entryDx=0;entryDy=0;fontFamily=Bosch Sans;fontSize=12;fontColor=default;endArrow=none;startFill=0;" edge="1" parent="1" source="qNLJSK2YPdrOxjm5gzX9-7" target="qNLJSK2YPdrOxjm5gzX9-21">
          <mxGeometry relative="1" as="geometry">
            <Array as="points">
              <mxPoint x="657" y="614" />
              <mxPoint x="657" y="674" />
            </Array>
          </mxGeometry>
        </mxCell>
        <mxCell id="qNLJSK2YPdrOxjm5gzX9-70" value="Config" style="edgeLabel;html=1;align=center;verticalAlign=middle;resizable=0;points=[];rounded=1;arcSize=4;fontFamily=Bosch Sans;fontSize=12;fontColor=default;fillColor=default;labelBackgroundColor=none;" vertex="1" connectable="0" parent="qNLJSK2YPdrOxjm5gzX9-69">
          <mxGeometry x="-0.3043" y="1" relative="1" as="geometry">
            <mxPoint x="4" y="-9" as="offset" />
          </mxGeometry>
        </mxCell>
        <mxCell id="qNLJSK2YPdrOxjm5gzX9-75" style="edgeStyle=orthogonalEdgeStyle;rounded=0;orthogonalLoop=1;jettySize=auto;html=1;entryX=1;entryY=0.75;entryDx=0;entryDy=0;fontFamily=Bosch Sans;fontSize=12;fontColor=default;dashed=1;dashPattern=8 8;strokeWidth=1;endArrow=none;startFill=0;" edge="1" parent="1" source="qNLJSK2YPdrOxjm5gzX9-72" target="qNLJSK2YPdrOxjm5gzX9-13">
          <mxGeometry relative="1" as="geometry">
            <Array as="points">
              <mxPoint x="927" y="654" />
              <mxPoint x="927" y="551" />
            </Array>
          </mxGeometry>
        </mxCell>
        <mxCell id="qNLJSK2YPdrOxjm5gzX9-72" value="Pinheader 1" style="rounded=1;whiteSpace=wrap;html=1;strokeColor=none;fillColor=light-dark(#424242,#222222);fontFamily=Bosch Sans;" vertex="1" parent="1">
          <mxGeometry x="1067" y="634" width="160" height="40" as="geometry" />
        </mxCell>
        <mxCell id="qNLJSK2YPdrOxjm5gzX9-77" style="edgeStyle=orthogonalEdgeStyle;rounded=0;orthogonalLoop=1;jettySize=auto;html=1;fontFamily=Bosch Sans;fontSize=12;fontColor=default;endArrow=oval;startFill=0;endFill=1;" edge="1" parent="1" source="qNLJSK2YPdrOxjm5gzX9-73">
          <mxGeometry relative="1" as="geometry">
            <mxPoint x="857" y="694" as="targetPoint" />
            <Array as="points">
              <mxPoint x="927" y="734" />
              <mxPoint x="927" y="694" />
              <mxPoint x="857" y="694" />
            </Array>
          </mxGeometry>
        </mxCell>
        <mxCell id="qNLJSK2YPdrOxjm5gzX9-73" value="Pinheader 2" style="rounded=1;whiteSpace=wrap;html=1;strokeColor=none;fillColor=light-dark(#424242,#222222);fontFamily=Bosch Sans;" vertex="1" parent="1">
          <mxGeometry x="1067" y="714" width="160" height="40" as="geometry" />
        </mxCell>
        <mxCell id="qNLJSK2YPdrOxjm5gzX9-76" value="SW DEBUG /&lt;div&gt;UART&lt;/div&gt;" style="text;html=1;align=center;verticalAlign=middle;resizable=0;points=[];autosize=1;strokeColor=none;fillColor=none;fontFamily=Bosch Sans;fontSize=12;fontColor=default;horizontal=1;" vertex="1" parent="1">
          <mxGeometry x="927" y="614" width="100" height="40" as="geometry" />
        </mxCell>
        <mxCell id="qNLJSK2YPdrOxjm5gzX9-78" value="MDC/MDIO" style="edgeLabel;html=1;align=center;verticalAlign=middle;resizable=0;points=[];rounded=1;arcSize=4;fontFamily=Bosch Sans;fontSize=12;fontColor=default;fillColor=default;labelBackgroundColor=none;horizontal=1;" vertex="1" connectable="0" parent="1">
          <mxGeometry x="977" y="719" as="geometry" />
        </mxCell>
      </root>
    </mxGraphModel>
  </diagram>
</mxfile>
